<svg height="512" viewBox="0 0 64 64" width="512" xmlns="http://www.w3.org/2000/svg" xmlns:xlink="http://www.w3.org/1999/xlink"><linearGradient id="New_Gradient_Swatch_1" gradientUnits="userSpaceOnUse" x1="26" x2="26" y1="-1.995" y2="68.859"><stop offset="0" stop-color="#fff33b"/><stop offset=".014" stop-color="#fee72e"/><stop offset=".042" stop-color="#fed51b"/><stop offset=".07" stop-color="#fdca10"/><stop offset=".1" stop-color="#fdc70c"/><stop offset=".4" stop-color="#f3903f"/><stop offset=".8" stop-color="#ed683c"/><stop offset="1" stop-color="#e93e3a"/></linearGradient><linearGradient id="New_Gradient_Swatch_1-2" x1="32.414" x2="32.414" xlink:href="#New_Gradient_Swatch_1" y1="-1.995" y2="68.859"/><linearGradient id="New_Gradient_Swatch_1-3" x1="31" x2="31" xlink:href="#New_Gradient_Swatch_1" y1="-1.995" y2="68.859"/><linearGradient id="New_Gradient_Swatch_1-4" x1="57" x2="57" xlink:href="#New_Gradient_Swatch_1" y1="-1.995" y2="68.859"/><linearGradient id="New_Gradient_Swatch_1-5" x1="20" x2="20" xlink:href="#New_Gradient_Swatch_1" y1="-1.995" y2="68.859"/><linearGradient id="New_Gradient_Swatch_1-6" x1="34" x2="34" xlink:href="#New_Gradient_Swatch_1" y1="-1.995" y2="68.859"/><g id="files-document-protection-insurance-pen"><path d="m47 2h-32a3.009 3.009 0 0 0 -3 3v21h-4a.937.937 0 0 0 -.37.07l-5 2a1 1 0 0 0 -.63.93v14a1 1 0 0 0 .45.83l3.01 2a.967.967 0 0 0 .55.17h5.99v13a3.009 3.009 0 0 0 3 3h32a3.009 3.009 0 0 0 3-3v-54a3.009 3.009 0 0 0 -3-3zm-35.1 32h.1v10h-5.69l-2.31-1.54v-12.78l4.19-1.68h11.81a2 2 0 0 1 0 4h-9a1 1 0 0 0 -1 1 3.009 3.009 0 0 1 -3 3v2a5.009 5.009 0 0 0 4.9-4zm36.1 25a1 1 0 0 1 -1 1h-32a1 1 0 0 1 -1-1v-25h6a4 4 0 0 0 0-8h-6v-21a1 1 0 0 1 1-1h32a1 1 0 0 1 1 1z" fill="url(#New_Gradient_Swatch_1)"/><path d="m31 20a1 1 0 0 0 .707-.293l5.657-5.657-1.414-1.414-4.95 4.95-2.122-2.122-1.414 1.414 2.829 2.829a1 1 0 0 0 .707.293z" fill="url(#New_Gradient_Swatch_1-2)"/><path d="m40.41 10.09-9-4a.979.979 0 0 0 -.82 0l-9 4a.987.987 0 0 0 -.59.91v6.41a8.979 8.979 0 0 0 3.02 6.72l6.32 5.62a1 1 0 0 0 1.32 0l6.32-5.62a8.979 8.979 0 0 0 3.02-6.72v-6.41a.987.987 0 0 0 -.59-.91zm-1.41 7.32a7.014 7.014 0 0 1 -2.35 5.23l-5.65 5.02-5.65-5.02a7.014 7.014 0 0 1 -2.35-5.23v-5.76l8-3.56 8 3.56z" fill="url(#New_Gradient_Swatch_1-3)"/><path d="m61 22h-3v-3a3 3 0 0 0 -6 0v34a.986.986 0 0 0 .03.24l2 8a1 1 0 0 0 1.94 0l2-8a.986.986 0 0 0 .03-.24v-29h2v9h2v-10a1 1 0 0 0 -1-1zm-6 34.88-.72-2.88h1.44zm1-4.88h-2v-28h2zm0-30h-2v-3a1 1 0 0 1 2 0z" fill="url(#New_Gradient_Swatch_1-4)"/><path d="m18 38h4v2h-4z" fill="url(#New_Gradient_Swatch_1-5)"/><path d="m24 38h20v2h-20z" fill="url(#New_Gradient_Swatch_1-6)"/><path d="m18 44h4v2h-4z" fill="url(#New_Gradient_Swatch_1-5)"/><path d="m24 44h20v2h-20z" fill="url(#New_Gradient_Swatch_1-6)"/><path d="m18 50h4v2h-4z" fill="url(#New_Gradient_Swatch_1-5)"/><path d="m24 50h20v2h-20z" fill="url(#New_Gradient_Swatch_1-6)"/><path d="m18 56h4v2h-4z" fill="url(#New_Gradient_Swatch_1-5)"/><path d="m24 56h20v2h-20z" fill="url(#New_Gradient_Swatch_1-6)"/></g></svg>