<svg height="512" viewBox="0 0 64 64" width="512" xmlns="http://www.w3.org/2000/svg" xmlns:xlink="http://www.w3.org/1999/xlink"><linearGradient id="New_Gradient_Swatch_1" gradientUnits="userSpaceOnUse" x1="32" x2="32" y1="-5.955" y2="66.67"><stop offset="0" stop-color="#fff33b"/><stop offset=".014" stop-color="#fee72e"/><stop offset=".042" stop-color="#fed51b"/><stop offset=".07" stop-color="#fdca10"/><stop offset=".1" stop-color="#fdc70c"/><stop offset=".4" stop-color="#f3903f"/><stop offset=".8" stop-color="#ed683c"/><stop offset="1" stop-color="#e93e3a"/></linearGradient><linearGradient id="New_Gradient_Swatch_1-3" x1="25" x2="25" xlink:href="#New_Gradient_Swatch_1" y1="-5.955" y2="66.67"/><linearGradient id="New_Gradient_Swatch_1-4" x1="39" x2="39" xlink:href="#New_Gradient_Swatch_1" y1="-5.955" y2="66.67"/><g id="customer_service-call_center-man-headset-headphone" data-name="customer service-call center-man-headset-headphone"><path d="m60 31.18v-8.18a21.023 21.023 0 0 0 -21-21h-14a21.023 21.023 0 0 0 -21 21v8.18a3.01 3.01 0 0 0 -2 2.82v6a3.009 3.009 0 0 0 3 3v8a9.014 9.014 0 0 0 9 9h11.18a3.01 3.01 0 0 0 2.82 2h8a3 3 0 0 0 0-6h-8a3.01 3.01 0 0 0 -2.82 2h-11.18a7.008 7.008 0 0 1 -7-7v-8h1.42a5.014 5.014 0 0 0 4.58 3h4a13.031 13.031 0 0 0 12 8h6a13.031 13.031 0 0 0 12-8h4a5.014 5.014 0 0 0 4.58-3h3.42a3.009 3.009 0 0 0 3-3v-6a3.01 3.01 0 0 0 -2-2.82zm-32 26.82h8a1 1 0 0 1 0 2h-8a1 1 0 0 1 0-2zm-20-17h-3a1 1 0 0 1 -1-1v-6a1 1 0 0 1 1-1h3zm5 3a3.009 3.009 0 0 1 -3-3v-8a3.009 3.009 0 0 1 3-3h3v11a12.9 12.9 0 0 0 .36 3zm33-3a11.007 11.007 0 0 1 -11 11h-6a11.007 11.007 0 0 1 -11-11v-11.27l13.29-4.15-1.22 3.05a1 1 0 0 0 .93 1.37.971.971 0 0 0 .37-.07l7.56-3.02-.82 1.64a1 1 0 0 0 .89 1.45h7zm0-13h-5.38l1.27-2.55a1 1 0 0 0 -.15-1.13 1.019 1.019 0 0 0 -1.11-.25l-7.84 3.14 1.14-2.84a1 1 0 0 0 -1.23-1.32l-14.7 4.59v-4.64a11.007 11.007 0 0 1 11-11h6a11.007 11.007 0 0 1 11 11zm8 13a3.009 3.009 0 0 1 -3 3h-3.36a12.9 12.9 0 0 0 .36-3v-11h3a3.009 3.009 0 0 1 3 3zm0-11.97a4.924 4.924 0 0 0 -3-1.03h-3v-5a13.012 13.012 0 0 0 -13-13h-6a13.012 13.012 0 0 0 -13 13v5h-3a4.924 4.924 0 0 0 -3 1.03v-6.03a15.018 15.018 0 0 1 15-15h14a15.018 15.018 0 0 1 15 15zm-15-23.03h-14a17.024 17.024 0 0 0 -17 17v8h-2v-8a19.017 19.017 0 0 1 19-19h14a19.017 19.017 0 0 1 19 19v8h-2v-8a17.024 17.024 0 0 0 -17-17zm21 34a1 1 0 0 1 -1 1h-3v-8h3a1 1 0 0 1 1 1z" fill="url(#New_Gradient_Swatch_1)"/><path d="m32 46c-1.626 0-3-.916-3-2h-2c0 2.206 2.243 4 5 4s5-1.794 5-4h-2c0 1.084-1.374 2-3 2z" fill="url(#New_Gradient_Swatch_1)"/><path d="m28 35a3 3 0 1 0 -3 3 3 3 0 0 0 3-3zm-3 1a1 1 0 1 1 1-1 1 1 0 0 1 -1 1z" fill="url(#New_Gradient_Swatch_1-3)"/><path d="m39 32a3 3 0 1 0 3 3 3 3 0 0 0 -3-3zm0 4a1 1 0 1 1 1-1 1 1 0 0 1 -1 1z" fill="url(#New_Gradient_Swatch_1-4)"/></g></svg>